<svg xmlns="http://www.w3.org/2000/svg" version="1.1" xmlns:xlink="http://www.w3.org/1999/xlink" width="149" height="226"><svg xmlns="http://www.w3.org/2000/svg" version="1.1" xmlns:xlink="http://www.w3.org/1999/xlink" width="149" height="226"><svg width="149" height="226" viewBox="0 0 149 226" fill="none" xmlns="http://www.w3.org/2000/svg">
<path d="M38.6432 221.142C32.0082 223.886 25.4219 225.547 18.4075 223.692C14.8828 222.759 12.7218 220.453 12.5902 217.493C12.4646 214.669 14.2455 212.749 18.0682 211.587C18.8287 211.355 19.5521 211.034 20.0683 210.411C22.5589 207.407 24.1904 204.034 24.6299 199.857C22.72 200.042 21.2691 201.094 19.5075 201.083C14.5107 201.051 10.8491 198.056 10.616 193.106C10.3951 188.416 10.5232 183.702 10.6652 179.004C10.7482 176.26 11.8284 173.734 13.3455 171.48C14.3748 169.951 14.4772 168.739 13.6789 166.961C9.39555 157.423 6.50264 147.439 4.08251 137.262C0.304247 121.374 -0.107681 105.284 0.0191322 89.0816C0.193608 66.7874 0.0541932 44.4907 0.0489134 22.195C0.0479402 18.0936 0.340888 17.8168 4.33384 18.1568C4.68081 18.1864 5.02737 18.2253 5.375 18.2418C9.77349 18.4507 9.77354 18.4498 10.432 14.1542C11.3731 8.01511 16.3676 3.07752 22.5385 1.57075C32.2395 -0.797968 41.9343 -0.286168 51.4987 1.76574C60.7103 3.74201 68.4765 8.36339 73.5937 16.665C73.8641 17.1037 74.2175 17.5001 74.5801 17.8692C74.7478 18.04 75.0308 18.0976 75.2157 18.1849C75.9802 18.1091 76.3031 17.5682 76.6253 17.0564C82.328 7.99626 90.786 3.38176 101.092 1.3696C108.102 0.00105292 115.099 -0.35436 122.12 0.555157C128.697 1.40709 134.358 3.93473 137.203 10.602C137.944 12.3373 138.049 14.1464 138.236 15.9464C138.384 17.3635 139.04 17.9658 140.405 17.9588C141.972 17.9507 143.541 17.9317 145.107 17.9797C148.131 18.0724 148.733 18.6886 148.737 21.7509C148.759 37.0791 148.769 52.4073 148.773 67.7355C148.776 80.538 148.954 93.3445 148.683 106.141C148.542 112.809 147.695 119.452 146.567 126.073C145.605 131.715 144.586 137.353 143.229 142.886C141.557 149.704 139.393 156.436 136.499 162.852C134.771 166.683 134.099 169.957 136.484 173.988C139.026 178.284 138.088 183.452 138.065 188.297C138.057 189.862 137.895 191.426 137.87 192.992C137.773 199.068 132.837 202.58 126.946 200.771C126.131 200.521 125.438 199.865 124.504 199.995C123.886 204.537 127.8 210.696 132.051 211.893C134.248 212.512 136.147 215.039 136.191 217.402C136.239 219.944 133.869 222.794 131.09 223.688C125.681 225.428 120.402 224.205 115.159 222.963C108.868 221.472 104.081 217.766 100.586 212.046C95.8084 215.524 90.8668 218.216 85.7945 220.688C82.8206 222.136 79.7919 223.437 76.7288 224.684C73.5237 225.989 70.9165 224.259 68.2681 223.175C61.9786 220.6 55.9104 217.557 50.3936 213.517C49.7133 213.019 48.9033 212.698 47.963 212.193C45.664 216.054 42.7562 219.107 38.6432 221.142ZM46.9749 88.1115C41.5746 88.1015 36.1742 88.1168 30.7743 88.0698C28.4135 88.0492 26.0753 88.1577 23.766 88.6707C18.6386 89.8097 15.6537 93.6355 16.0424 98.568C16.3432 102.386 19.3643 105.371 23.8455 106.654C33.1882 109.331 42.4599 108.622 51.6646 106.139C65.6385 102.37 72.1729 94.0463 71.5846 80.7404C71.284 73.9433 68.8596 68.08 61.6753 65.6626C58.784 64.6897 55.7264 64.5354 52.6752 64.4609C49.1125 64.374 45.5224 64.8388 41.9904 64.1073C37.8063 63.2407 35.5808 60.0144 36.0503 55.6423C36.4387 52.0258 39.2542 49.7418 43.3509 49.6589C47.7879 49.5692 52.2222 49.7476 56.6626 49.3174C64.5108 48.5571 68.8288 44.9578 70.8155 37.4296C73.8902 25.7791 67.91 12.8449 55.3574 8.70609C49.8229 6.88124 44.2126 5.97175 38.509 5.58142C32.863 5.19505 27.1981 5.55791 21.8378 7.72035C17.647 9.41097 15.8201 12.0061 15.8774 15.9658C15.9369 20.0747 18.1366 23.1252 22.1334 24.6934C24.7684 25.7273 27.5123 26.1031 30.3189 26.1131C37.6355 26.1393 44.9523 26.1301 52.2687 26.1836C55.7321 26.2089 58.6187 27.5686 60.3052 30.649C64.0321 37.4561 59.13 44.1363 51.712 44.6985C43.4066 45.3278 35.0331 44.6941 26.7391 46.1438C21.7953 47.008 17.995 49.7539 17.2506 53.8161C16.1314 59.9227 18.0698 64.6238 23.0294 66.7428C25.7179 67.8915 28.6627 68.5141 31.6628 68.5229C37.2369 68.5392 42.8117 68.6296 48.3845 68.5567C50.7981 68.5252 53.0522 69.0471 55.2514 69.8925C59.7353 71.6162 62.3143 76.163 61.4876 80.7573C60.746 84.878 56.9058 87.9333 52.1981 88.1012C50.6322 88.1571 49.0628 88.1127 46.9749 88.1115ZM78.2604 65.2437C78.3868 71.3345 78.3941 77.4307 78.6685 83.5149C79.0503 91.9776 82.8965 98.3891 90.3366 102.648C96.1303 105.965 102.482 107.502 108.966 108.068C114.282 108.532 119.705 108.731 125.008 107.082C129.614 105.651 132.618 102.469 132.83 98.1123C133.062 93.3386 130.754 89.9598 126.072 88.1726C123.497 87.1895 120.796 87.1057 118.103 87.0933C110.093 87.0562 102.082 87.1152 94.0716 87.0739C87.9889 87.0424 82.9496 82.305 82.6316 76.4274C82.2577 69.5166 86.5424 63.8184 92.801 63.1655C95.6481 62.8684 98.5362 62.9182 101.406 62.8966C108.459 62.8437 115.513 62.9209 122.564 62.7897C127.418 62.6994 129.714 59.0496 128.079 54.5045C126.87 51.1443 124.081 50.9775 121.244 50.967C112.277 50.9339 103.308 51.0633 94.3421 50.9467C85.321 50.8293 79.7408 40.9454 84.0958 33.0709C86.5439 28.6445 90.3959 26.7393 95.2803 26.7136C103.987 26.6678 112.696 26.7791 121.401 26.6572C125.535 26.5993 129.504 25.6417 131.559 21.5165C134.935 14.7373 131.946 7.65045 122.777 6.13899C114.784 4.8215 106.845 5.51263 99.0096 7.51196C86.1879 10.7836 78.0117 19.0779 78.2414 33.6398C78.4047 43.998 78.2631 54.361 78.2604 65.2437ZM29.7328 155.443C33.3872 155.537 37.0415 155.708 40.6961 155.713C66.6471 155.748 92.5982 155.754 118.549 155.749C120.112 155.749 121.675 155.586 123.236 155.479C127.604 155.183 130.612 152.976 132.002 148.847C133.54 144.275 132.139 139.191 128.708 136.477C126.018 134.349 122.787 134.167 119.53 134.167C94.0146 134.173 68.499 134.174 42.9834 134.177C37.4101 134.178 31.8351 134.1 26.2639 134.212C21.221 134.312 17.1482 137.75 16.1393 142.5C15.0835 147.47 17.2075 151.902 21.5747 154.402C24.046 155.816 26.6618 155.181 29.7328 155.443ZM80.9546 198.75C85.7422 198.741 90.5302 198.7 95.3175 198.733C99.2834 198.76 102.124 200.765 103.319 204.565C105.202 210.55 108.586 215.077 114.741 217.168C119.351 218.735 124.041 219.326 128.872 218.552C129.412 218.466 129.902 218.293 129.825 217.362C124.853 215.545 122.196 211.444 120.342 206.698C119.005 203.275 118.435 199.674 118.262 196.008C117.833 186.904 111.332 180.579 102.229 180.564C83.6007 180.534 64.9722 180.579 46.3437 180.586C44.8554 180.587 43.4184 180.77 41.9754 181.2C34.7429 183.353 31.1662 188.333 30.5601 195.692C30.2613 199.32 29.9677 202.96 28.4943 206.358C26.4084 211.169 24.1358 215.832 18.0307 217.505C18.9646 218.062 19.2972 218.398 19.6779 218.467C28.3461 220.026 41.3887 217.525 45.1016 205.466C46.7946 199.967 49.0427 198.736 54.8394 198.729C63.3702 198.718 71.9011 198.742 80.9546 198.75ZM36.5255 124.965C66.5662 124.958 96.6069 124.952 126.648 124.944C127.692 124.943 128.742 124.981 129.78 124.891C131.417 124.747 132.271 123.735 132.384 122.147C132.5 120.509 131.638 119.41 130.085 119.145C128.728 118.913 127.309 118.991 125.919 119.011C114.455 119.177 103.183 117.901 92.3344 114.061C85.4046 111.608 79.1192 108.196 75.8027 101.011C74.9085 99.074 73.2546 99.1703 72.1427 101.367C68.0889 109.378 60.7818 112.832 52.8457 115.359C43.6594 118.284 34.1797 119.332 24.5642 119.307C22.5622 119.302 20.5521 119.236 18.5605 119.39C16.6486 119.538 15.6899 120.738 16.207 122.628C16.6766 124.345 17.9953 124.998 19.8073 124.977C25.2052 124.916 30.6042 124.961 36.5255 124.965ZM39.7964 164.874C36.1459 165.617 32.3601 165.379 28.7634 166.636C22.9202 168.68 18.0152 171.553 16.4922 178.188C15.4421 182.763 16.2313 187.371 16.0194 191.958C15.9226 194.054 16.9195 195.591 19.2044 195.578C21.4819 195.565 22.0191 193.905 22.0332 191.973C22.0548 189.012 22.0002 186.049 22.1048 183.091C22.2562 178.809 23.5917 175.099 28.056 173.61C30.9953 172.63 33.9059 171.438 37.125 171.442C61.7634 171.473 86.402 171.474 111.04 171.448C114.06 171.445 116.929 172.12 119.711 173.135C124.576 174.911 126.742 178.228 126.786 183.528C126.811 186.66 126.788 189.799 127.005 192.919C127.125 194.644 128.183 195.914 130.112 195.736C131.952 195.567 132.457 194.222 132.447 192.549C132.425 188.717 132.437 184.885 132.449 181.054C132.47 174.72 129.113 170.712 123.667 168.032C118.527 165.502 112.971 164.924 107.436 164.89C85.0561 164.752 62.675 164.845 39.7964 164.874Z" fill="#EC6C00"></path>
</svg></svg><style>@media (prefers-color-scheme: light) { :root { filter: none; } }
@media (prefers-color-scheme: dark) { :root { filter: none; } }
</style></svg>